<svg width="958" height="922" xmlns="http://www.w3.org/2000/svg" style="vector-effect: non-scaling-stroke;" stroke="null">
 <g stroke="null">
  <rect stroke="null" fill="none" id="canvas_background" height="924" width="960" y="-1" x="-1"/>
 </g>
 <g stroke="null">
  <path stroke="null" id="svg_7" d="m848.577341,643.922548l108.108355,188.083249l-216.216709,0l-50.893114,88.509764l-419.789167,0l-50.893114,-88.509764l-217.165028,0l108.108355,-186.818823l-50.893114,-88.509764l211.159008,-363.838351l100.521803,0l109.056674,-189.347674l109.056674,189.347674l100.83791,0l209.894583,363.838351l-50.893114,87.245339zm-776.357073,-87.245339l44.887095,76.497725l19.282484,-33.823374l-25.60461,-43.622669l185.554398,-321.480107l49.628689,0l18.334165,-30.346205l-88.509764,0l-203.572457,352.774631zm195.353693,269.322568l-127.390839,-219.693879l-19.282484,33.823374l106.843929,185.554398l39.829394,0l0,0.316106zm82.503744,-584.796655l-205.152989,357.832332l129.919689,226.964323l413.783147,0l128.655264,-223.171048l-208.630158,-361.625607l-258.574954,0zm333.492147,667.3004l43.622669,-76.497725l-35.087799,0l-25.60461,43.622669l-369.844371,0l-25.60461,-43.622669l-38.881075,0l43.622669,76.497725l407.777127,0zm-95.780209,-704.917049l-215.900603,0l-17.06974,30.346205l250.040083,0l-17.06974,-30.346205zm95.780209,0l-88.509764,0l18.334165,30.346205l53.421965,0l1.264425,2.52885l184.289973,318.951257l-27.817354,47.415945l18.334165,30.346205l43.622669,-76.497725l-202.940245,-353.090737zm47.415945,622.413305l108.108355,-185.554398l-18.334165,-30.346205l-124.861989,215.900603l35.087799,0z" fill="#fff"/>
  <g stroke="null" id="svg_78">
   <g stroke="null" transform="matrix(0.8031327930483937,0,0,0.8031327930483937,-2010.3274246365586,-2003.4288009594052) " id="svg_76">
    <rect stroke="null" x="2910.453279" y="2867.665913" width="378" height="602" id="svg_74" fill="none"/>
   </g>
   <g stroke="null" transform="matrix(0.8031327930483937,0,0,0.8031327930483937,-2010.3274246365586,-2003.4288009594052) " id="svg_77">
    <path stroke="null" fill="#fff" d="m3130.182452,2870.678134c-37.043134,16.807297 -50.883999,47.112605 -53.865338,77.29866c-1.863337,25.415913 9.35395,54.044218 10.471952,78.90113c0,42.774757 -44.257973,56.861583 -44.257973,117.911947c0,20.981171 19.378702,44.101453 19.378702,98.555605c-3.354006,28.583585 -19.304168,35.03073 -37.266734,37.266734a37.266734,37.266734 0 0 1 -37.266734,-37.266734a37.266734,37.266734 0 0 1 10.322885,-25.639513a37.266734,37.266734 0 0 1 3.801207,-3.726673c8.496815,-8.571349 20.161303,-11.888088 20.08677,-34.508996c0,-11.627221 -7.52788,-22.210974 -14.72036,-42.797117c-6.782546,-19.974969 -1.863337,-53.365963 14.273159,-73.080066c-26.086714,10.062018 -42.163583,35.067997 -50.362265,57.502571c-8.645882,27.577383 -1.118002,43.460465 -12.968823,66.379507c-7.229746,14.83216 -15.838362,20.981171 -23.999777,33.353727c-9.652084,13.490558 -20.981171,45.040575 -20.981171,59.686401a186.333671,186.333671 0 0 0 186.333671,186.333671a186.333671,186.333671 0 0 0 186.333671,-186.333671c0,-14.645827 -11.18002,-46.195844 -20.832104,-59.686401c-8.161415,-12.372556 -16.919097,-18.521567 -24.148844,-33.353727c-11.701755,-22.919041 -4.173874,-38.802124 -12.819757,-66.379507c-8.198682,-22.434574 -24.297911,-47.433099 -50.369718,-57.502571c16.136496,19.714102 21.055705,53.105096 14.273159,73.080066c-7.229746,20.571237 -14.83216,31.15499 -14.83216,42.797117c0,22.620908 11.589954,25.937647 20.08677,34.508996a37.266734,37.266734 0 0 1 3.801207,3.726673a37.266734,37.266734 0 0 1 10.322885,25.639513a37.266734,37.266734 0 0 1 -37.266734,37.266734c-20.608504,-2.608671 -35.403397,-12.223489 -37.266734,-37.266734c0,-71.745917 30.707789,-76.322272 30.707789,-129.412461c0,-75.807991 -67.981976,-111.695856 -67.981976,-167.118943c0,-18.782434 4.397475,-50.794559 31.005923,-76.135938l0.007453,0l-0.000001,0z" id="svg_73"/>
   </g>
  </g>
 </g>
</svg>